PathFileType	4	(X/Y/Z)	C:\Users\Basilio\Documents\Thesis Gigler\squatting_fais\c3dfiles\047\SLS_pre_back5\markers_experimental.trc
DataRate	CameraRate	NumFrames	NumMarkers	Units	OrigDataRate	OrigDataStartFrame	OrigNumFrames
200.000000	200.000000	4	62	mm	200.000000	815	1304
Frame#	Time	FHD			LBHD			RBHD			C7			T10			CLAV			LSHO			LUUPA			LMUPA			LDUPA			LLEP			LMEP			LRAD			LUL			LRFIN			RSHO			RUPA1			RMUPA			RDUPA			RLEP			RMEP			RRAD			RUFIN			LASI			RASI			USACR			LSACR			RSACR			LTHI1			LTHI2			LTHI3			LTHI4			LLFC			LMFC			LTIB1			LTIB2			LTIB3			LTIB4			LLMAL			LMMAL			LMT1			LMT2			LMT5			RTHI			RTHI2			RTHI3			RTHI4			RLFC			RMFC			RTIB1			RTIB2			RTIB3			RTIB4			RLMAL			RMMAL			RHEE			RMT1			RMT2			RMT5			RUL			*60			*61			
		X1	Y1	Z1	X2	Y2	Z2	X3	Y3	Z3	X4	Y4	Z4	X5	Y5	Z5	X6	Y6	Z6	X7	Y7	Z7	X8	Y8	Z8	X9	Y9	Z9	X10	Y10	Z10	X11	Y11	Z11	X12	Y12	Z12	X13	Y13	Z13	X14	Y14	Z14	X15	Y15	Z15	X16	Y16	Z16	X17	Y17	Z17	X18	Y18	Z18	X19	Y19	Z19	X20	Y20	Z20	X21	Y21	Z21	X22	Y22	Z22	X23	Y23	Z23	X24	Y24	Z24	X25	Y25	Z25	X26	Y26	Z26	X27	Y27	Z27	X28	Y28	Z28	X29	Y29	Z29	X30	Y30	Z30	X31	Y31	Z31	X32	Y32	Z32	X33	Y33	Z33	X34	Y34	Z34	X35	Y35	Z35	X36	Y36	Z36	X37	Y37	Z37	X38	Y38	Z38	X39	Y39	Z39	X40	Y40	Z40	X41	Y41	Z41	X42	Y42	Z42	X43	Y43	Z43	X44	Y44	Z44	X45	Y45	Z45	X46	Y46	Z46	X47	Y47	Z47	X48	Y48	Z48	X49	Y49	Z49	X50	Y50	Z50	X51	Y51	Z51	X52	Y52	Z52	X53	Y53	Z53	X54	Y54	Z54	X55	Y55	Z55	X56	Y56	Z56	X57	Y57	Z57	X58	Y58	Z58	X59	Y59	Z59	X60	Y60	Z60	X61	Y61	Z61	X62	Y62	Z62	

816	4.075	106.7722549438477	1312.502685546875	-1146.915161132813	-73.12577056884767	1283.140258789063	-1167.056274414063	-45.59571838378907	1288.757446289063	-1021.254516601563	-113.9025192260742	1157.825073242188	-1087.924560546875	-316.1669311523438	952.0507812500002	-1017.230712890625	-17.37572097778321	1031.248657226563	-1112.895141601563	-76.5268020629883	1074.376098632813	-1262.373291015625	-76.06236267089845	924.5347290039065	-1369.839111328125	-26.53813552856446	935.1116943359377	-1370.687622070313	-28.18208122253419	876.9744873046877	-1387.747192382813	36.60459136962891	842.748962402344	-1399.684936523438	13.78401184082032	792.3181762695315	-1323.891723632813	210.6005249023438	920.8628540039065	-1226.619384765625	238.7886810302735	849.768981933594	-1229.806762695313	300.1269531250001	913.4836425781252	-1226.91357421875	-1.280836820602417	1087.275268554688	-964.6860961914065	51.53133773803712	932.8959960937502	-861.2338867187502	92.15328979492189	938.7830810546877	-889.4702148437502	97.03122711181643	880.4487304687502	-870.0001220703127	157.5180206298828	841.1406250000002	-895.330505371094	101.9348754882813	788.113708496094	-942.153259277344	295.1892700195313	838.6748657226565	-1119.878784179688	291.7696533203126	927.3333740234377	-1139.118041992188	-310.1218261718751	683.9634399414064	-1086.840698242188	-295.5962829589844	693.7982177734376	-860.2680664062502	-420.2071228027345	850.1263427734377	-977.1302490234377	-447.4358825683595	828.9913330078127	-1002.510925292969	-439.1468505859376	827.5131835937502	-945.0932617187502	-353.1059265136719	617.1817016601564	-1172.866088867188	-271.9703063964844	598.4392700195314	-1175.309814453125	-242.8012695312501	635.1583862304689	-1160.841674804688	-247.4148559570313	544.2579345703126	-1181.776123046875	-133.5441284179688	425.0329895019532	-1163.863159179688	-94.29158020019533	436.4492187500001	-1040.07373046875	-167.2199401855469	280.9742431640626	-1040.717529296875	-198.1406860351563	231.1065826416016	-1104.617065429688	-186.4317321777344	229.1956176757813	-1060.863159179688	-243.5771179199219	183.4023742675782	-1023.016662597656	-339.6893920898438	120.4836883544922	-1062.777221679688	-314.3044128417969	141.5873413085938	-974.5103759765627	-209.0226287841797	62.71124267578126	-991.0686035156252	-207.5449676513672	61.70679855346681	-1036.252685546875	-258.4010314941407	50.06090545654298	-1079.801147460938	-405.6043701171876	553.6187744140626	-756.2603149414064	-370.8278198242188	496.8675537109376	-750.8925781250001	-341.2013854980469	493.668914794922	-763.2153930664064	-402.9700012207032	419.1947631835939	-742.1674194335939	-413.4266967773439	287.5332336425782	-754.6109008789064	-420.5068969726564	259.8517150878907	-883.6379394531252	-519.3564453125001	224.5181427001954	-758.0156860351564	-600.2832641601564	291.1061401367188	-721.9065551757814	-598.9994506835939	244.0162048339844	-727.9191894531251	-650.1197509765626	229.0139312744141	-755.9464111328126	-798.067321777344	293.1878356933594	-720.2892456054689	-791.2083129882815	256.1916198730469	-805.8365478515627	-810.7901000976565	348.5333557128907	-781.1970214843752	-899.168884277344	160.8586120605469	-779.6450805664065	-896.567810058594	154.3264617919922	-735.4041137695314	-907.8469848632815	215.5173339843751	-687.6234741210939	234.4182586669922	876.0676269531252	-1147.82763671875	nan	nan	nan	nan	nan	nan	
817	4.08	106.4347000122071	1312.689575195313	-1146.632446289063	-73.38415527343751	1283.483032226563	-1166.856811523438	-46.41404342651368	1288.651245117188	-1020.231018066406	-113.9868240356446	1158.012451171875	-1087.896850585938	-316.3739929199219	952.2268066406252	-1017.225463867188	-17.64326095581055	1031.411254882813	-1112.686767578125	-76.5911102294922	1074.625	-1262.405883789063	-76.18265533447267	924.7542724609377	-1369.810302734375	-26.4959945678711	935.2333984375002	-1370.65185546875	-28.28886032104493	877.213806152344	-1387.7021484375	36.51061630249024	842.953552246094	-1399.646362304688	13.60424423217774	792.4629516601565	-1323.92138671875	210.1828918457032	920.922058105469	-1226.313232421875	238.6031341552735	849.8052368164065	-1229.524780273438	299.7729797363282	913.4321899414065	-1226.486450195313	-1.539855718612671	1087.496215820313	-964.589782714844	51.0563201904297	932.9500732421877	-861.223327636719	91.66941833496095	938.8779907226565	-889.3189697265627	96.1706466674805	880.403259277344	-869.8176879882815	156.9329071044922	841.0899047851565	-894.774841308594	101.4146194458008	788.0852661132815	-942.168884277344	294.8500671386719	838.5308837890627	-1119.498291015625	291.5943603515626	927.1047363281252	-1138.827514648438	-310.1200561523438	684.0930175781251	-1086.589233398438	-295.9023437500001	694.0617675781251	-860.0372314453127	-420.4756469726564	850.2866210937502	-977.0459594726565	-447.5840148925782	829.0281982421877	-1002.463806152344	-439.3125915527345	827.6445312500002	-945.0981445312502	-353.1391601562501	617.2900390625001	-1172.814453125	-271.9296875000001	598.5072021484376	-1175.222412109375	-242.7762756347657	635.2216796875001	-1160.717529296875	-247.3513641357422	544.3243408203126	-1181.700317382813	-133.5140228271485	425.0196533203126	-1163.742919921875	-94.43811035156251	436.305389404297	-1039.771484375	-167.2650756835938	280.9605407714844	-1040.444091796875	-198.1797485351563	231.1040191650391	-1104.390991210938	-186.5196380615235	229.128646850586	-1060.739624023438	-243.6883087158204	183.4168548583985	-1022.70263671875	-339.7000122070313	120.4929809570313	-1062.691650390625	-314.3401184082032	141.5678253173828	-974.466735839844	-209.0352630615235	62.70600891113283	-990.9713134765627	-207.5426483154297	61.67090225219728	-1036.181640625	-258.3583374023438	50.14935302734376	-1079.763305664063	-405.609344482422	553.6049194335939	-756.3395385742189	-370.8108825683594	496.8198852539064	-751.0109252929689	-341.1838073730469	493.6806030273439	-763.4056396484376	-402.8217773437501	419.1671447753907	-742.4218750000001	-413.2069091796876	287.5102844238282	-754.8713989257814	-420.4337158203126	259.9440002441407	-883.9635009765627	-519.0836181640626	224.1972045898438	-758.1139526367189	-599.8130493164064	290.9113769531251	-722.3394775390626	-598.6752319335939	243.6703491210938	-728.1472167968751	-649.5667114257814	228.6474304199219	-756.5764770507814	-797.837829589844	293.0733642578126	-720.5962524414064	-790.7603759765627	256.0971679687501	-806.3509521484377	-810.376403808594	348.2936401367188	-780.982116699219	-898.7883300781252	160.5982818603516	-780.338317871094	-896.4190673828127	154.0339965820313	-735.8756713867189	-907.8811645507815	214.7730560302735	-688.1445312500001	234.2207641601563	875.882263183594	-1147.897216796875	nan	nan	nan	nan	nan	nan	
818	4.085	106.1870574951172	1313.279541015625	-1146.511352539063	-73.76534271240236	1283.750732421875	-1166.706787109375	-46.55304718017579	1289.087280273438	-1020.88134765625	-114.2808837890625	1158.284423828125	-1087.717407226563	-316.6547241210938	952.4316406250002	-1017.1572265625	-17.70677375793457	1031.715576171875	-1112.631103515625	-76.63609313964845	1074.64697265625	-1262.103759765625	-76.25698852539064	924.9307250976565	-1369.795288085938	-26.4958724975586	935.5158691406252	-1370.68798828125	-28.2992286682129	877.399353027344	-1387.697875976563	36.46209335327149	843.1414794921877	-1399.569458007813	13.50364017486573	792.7126464843752	-1323.979370117188	210.0257415771485	920.988220214844	-1226.04638671875	238.3563079833985	849.8112792968752	-1229.20849609375	299.7194824218751	913.3231201171877	-1226.228759765625	-1.845912694931031	1087.746459960938	-964.3552856445315	50.63330078125001	933.1216430664065	-860.8686523437502	90.96888732910158	938.8894042968752	-889.0686645507815	95.7130813598633	880.4985351562502	-869.779235839844	156.3030090332032	841.1708984375002	-894.6087646484377	100.8395690917969	788.229919433594	-942.0483398437502	294.2249145507813	838.2254638671877	-1119.107421875	291.3281860351563	926.906921386719	-1138.492309570313	-310.9459838867188	683.3551635742189	-1086.505859375	-296.0822448730469	694.1373901367189	-859.985778808594	-420.5551147460939	850.5270996093752	-977.0354614257815	-447.7420043945314	829.1801757812502	-1002.432800292969	-438.6143798828126	827.7939453125002	-945.5278320312502	-353.0529479980469	617.4252319335939	-1172.758178710938	-271.8288574218751	598.5667724609376	-1175.166015625	-242.6454620361329	635.3107910156251	-1160.703247070313	-247.3331146240235	544.2576904296876	-1181.62353515625	-133.5449676513672	425.1113586425782	-1163.527709960938	-94.41419219970705	436.3361816406251	-1039.640258789063	-167.2519226074219	280.9711914062501	-1040.226318359375	-198.1399688720704	231.0487213134766	-1104.212646484375	-186.4652099609375	229.0769958496094	-1060.663818359375	-243.7275543212891	183.3881072998047	-1022.498962402344	-339.6980590820313	120.4670867919922	-1062.638427734375	-314.3892211914063	141.6019287109375	-974.3500976562502	-208.9707489013672	62.71207427978517	-990.983581542969	-207.5211791992188	61.69067001342775	-1036.201416015625	-258.2704772949219	50.1397171020508	-1079.710693359375	-405.6576538085939	553.5701293945314	-756.5203857421876	-370.5575561523438	496.9027709960939	-751.2460937500001	-341.1076660156251	493.7507324218751	-763.6158447265626	-402.7899475097657	419.120574951172	-742.4763183593751	-413.016082763672	287.4371643066407	-755.1771850585939	-420.3980102539064	260.0786743164063	-884.3400878906252	-518.5778198242189	224.0745849609376	-758.9397583007814	-599.5559082031251	290.6647949218751	-722.4588012695314	-598.2700805664064	243.5809631347657	-728.5327758789064	-649.2761840820314	228.4760131835938	-756.8332519531251	-797.3939208984377	292.3758544921876	-720.9359741210939	-790.3881835937502	255.8761291503907	-806.7139892578127	-810.0486450195315	347.9341430664063	-780.7717895507815	-898.5501098632815	160.1981811523438	-781.1937255859377	-896.0906372070315	153.6675109863282	-736.7662963867189	-907.696960449219	214.1349182128907	-688.7238769531251	233.6957244873047	875.7355957031252	-1147.243530273438	nan	nan	nan	nan	nan	nan	
819	4.09	105.2686920166016	1313.557250976563	-1145.769409179688	-73.95283508300783	1284.05078125	-1166.583862304688	-46.98612213134766	1289.119873046875	-1020.291748046875	-114.3624267578125	1158.45703125	-1087.629150390625	-316.8470458984376	952.6262207031252	-1017.164245605469	-17.84131622314453	1032.026245117188	-1112.540161132813	-76.88194274902345	1075.123413085938	-1262.280517578125	-76.4010696411133	925.130065917969	-1369.744873046875	-26.69219398498536	935.6998291015627	-1370.545288085938	-28.36540794372559	877.7047119140627	-1387.655395507813	36.31964111328126	843.3671875000002	-1399.547119140625	13.43764305114746	792.8811035156252	-1323.96728515625	209.9871673583985	921.0789184570315	-1225.939575195313	238.2203063964844	849.7911376953127	-1228.999267578125	299.6584472656251	913.3017578125002	-1225.984252929688	-2.284702301025391	1088.00146484375	-963.9954833984377	50.25672912597658	933.204040527344	-860.9446411132815	90.56241607666017	939.0755004882815	-889.1437988281252	95.22766876220705	880.538757324219	-869.728698730469	155.8515625	841.2464599609377	-894.716491699219	100.5154266357422	788.2507324218752	-942.1843261718752	293.7983093261719	838.1770629882815	-1118.703491210938	291.0897216796876	926.858337402344	-1138.019409179688	-311.0928344726563	683.5122070312501	-1086.38916015625	-296.2630004882813	694.4056396484376	-859.888122558594	-420.7083129882814	850.6895141601565	-977.016784667969	-447.8886718750001	829.4141845703127	-1002.423095703125	-438.7683105468751	828.0070800781252	-945.4359130859377	-352.9066772460938	617.5487670898439	-1172.691772460938	-271.7822265625001	598.6989135742189	-1175.060913085938	-242.5232086181641	635.3706665039064	-1160.59716796875	-247.3186492919922	544.2880859375001	-1181.506713867188	-133.5731506347657	425.1021423339845	-1163.341674804688	-94.45030975341798	436.3842773437501	-1039.48779296875	-167.2332763671875	281.0480957031251	-1040.311401367188	-198.1776885986329	230.9753875732422	-1104.096923828125	-186.4617462158203	229.0249176025391	-1060.517700195313	-243.8786926269532	183.3360900878907	-1022.176330566406	-339.7269592285157	120.551628112793	-1062.507690429688	-314.4882507324219	141.5415954589844	-974.3198852539065	-208.9120483398438	62.73412704467775	-990.9318847656252	-207.5304870605469	61.69389724731447	-1036.083740234375	-258.3649291992188	50.20502853393556	-1079.713256835938	-405.5703735351564	553.5939941406251	-756.6505737304689	-370.5706176757813	496.8852539062501	-751.4611816406251	-341.0014648437501	493.8026123046876	-763.7926025390626	-402.7068786621095	419.0960693359376	-742.7789306640626	-412.7857055664064	287.2381591796876	-755.5983886718751	-420.0810852050782	260.1010437011719	-884.6477661132815	-518.2045898437501	224.0060119628907	-758.9358520507814	-599.3300170898439	290.4827270507813	-722.6672363281251	-598.0005493164064	243.4506530761719	-728.7592773437501	-649.0607910156251	228.3294525146485	-756.9210815429689	-797.196960449219	291.9060974121094	-720.9764404296876	-790.1228637695315	255.4702301025391	-806.8435668945315	-809.6517333984377	347.6932067871094	-780.483337402344	-897.970397949219	159.8532104492188	-782.4716796875002	-895.9436035156252	153.1301727294922	-738.0943603515626	-907.6363525390627	213.3698425292969	-689.4353027343751	233.4629058837891	875.6893310546877	-1147.314086914063	nan	nan	nan	nan	nan	nan	
